<svg width="1499" height="400" viewBox="0 0 1499 400" fill="none" xmlns="http://www.w3.org/2000/svg">
<path d="M465 323.452V51.2815H569.069C588.715 51.2815 605.042 54.3824 618.051 60.5842C631.148 66.6974 640.927 75.0698 647.387 85.7014C653.935 96.3331 657.21 108.382 657.21 121.849C657.21 132.924 655.086 142.404 650.838 150.289C646.59 158.085 640.883 164.42 633.714 169.293C626.546 174.166 618.538 177.665 609.688 179.791V182.449C619.334 182.981 628.582 185.949 637.431 191.353C646.369 196.669 653.67 204.2 659.334 213.946C664.997 223.691 667.829 235.475 667.829 249.296C667.829 263.383 664.422 276.052 657.608 287.304C650.794 298.467 640.528 307.283 626.812 313.75C613.095 320.218 595.839 323.452 575.043 323.452H465ZM514.247 282.254H567.211C585.087 282.254 597.963 278.843 605.839 272.021C613.803 265.11 617.785 256.251 617.785 245.442C617.785 237.38 615.794 230.115 611.812 223.647C607.83 217.091 602.166 211.952 594.821 208.231C587.476 204.422 578.715 202.517 568.538 202.517H514.247V282.254ZM514.247 167.034H562.963C571.459 167.034 579.113 165.483 585.928 162.382C592.742 159.193 598.096 154.719 601.989 148.96C605.971 143.112 607.963 136.202 607.963 128.228C607.963 117.685 604.246 109.002 596.812 102.18C589.467 95.3585 578.538 91.9475 564.025 91.9475H514.247V167.034Z" fill="white"/>
<path d="M786.102 327.439C765.66 327.439 748.006 323.186 733.139 314.681C718.36 306.087 706.989 293.949 699.024 278.267C691.06 262.497 687.077 243.936 687.077 222.584C687.077 201.586 691.06 183.158 699.024 167.299C707.077 151.352 718.316 138.948 732.74 130.089C747.165 121.14 764.112 116.666 783.58 116.666C796.147 116.666 808.005 118.704 819.155 122.779C830.394 126.766 840.305 132.968 848.889 141.385C857.562 149.801 864.376 160.522 869.331 173.545C874.287 186.481 876.765 201.896 876.765 219.793V234.545H734.643V202.118H830.704C830.615 192.904 828.624 184.709 824.73 177.532C820.837 170.267 815.394 164.553 808.403 160.389C801.501 156.225 793.447 154.143 784.244 154.143C774.421 154.143 765.793 156.535 758.36 161.319C750.926 166.015 745.13 172.216 740.97 179.924C736.9 187.544 734.82 195.916 734.732 205.042V233.348C734.732 245.22 736.9 255.409 741.236 263.914C745.572 272.331 751.634 278.799 759.421 283.317C767.209 287.747 776.324 289.962 786.766 289.962C793.757 289.962 800.085 288.987 805.748 287.038C811.412 285.001 816.323 282.033 820.483 278.134C824.642 274.236 827.783 269.407 829.907 263.649H876.765C873.933 275.521 866.544 290.936 858.579 299.796C850.703 308.567 840.615 315.389 828.314 320.262C816.014 325.046 801.943 327.439 786.102 327.439Z" fill="white"/>
<path d="M904.708 399.999V119.324H951.964V153.08H954.751C957.229 148.118 960.725 142.847 965.238 137.265C969.751 131.595 975.857 126.766 983.556 122.779C991.255 118.704 1001.08 116.666 1013.02 116.666C1028.78 116.666 1042.98 120.697 1055.63 128.76C1068.38 136.733 1078.47 148.561 1085.9 164.243C1093.42 179.836 1097.18 198.973 1097.18 221.654C1097.18 244.069 1093.51 263.117 1086.17 278.799C1078.82 294.48 1068.82 306.441 1056.17 314.681C1043.51 322.92 1029.18 327.04 1013.16 327.04C1001.48 327.04 991.786 325.091 984.087 321.192C976.388 317.294 970.194 312.598 965.503 307.105C960.902 301.524 957.318 296.252 954.751 291.291H952.76V399.999H904.708ZM951.831 221.388C951.831 234.589 953.689 246.151 957.406 256.074C961.211 265.996 966.654 273.749 973.734 279.33C980.902 284.823 989.574 287.57 999.751 287.57C1010.37 287.57 1019.26 284.735 1026.43 279.064C1033.6 273.306 1039 265.465 1042.63 255.542C1046.34 245.531 1048.2 234.146 1048.2 221.388C1048.2 208.718 1046.39 197.467 1042.76 187.632C1039.13 177.798 1033.73 170.09 1026.56 164.509C1019.4 158.927 1010.46 156.136 999.751 156.136C989.486 156.136 980.769 158.838 973.601 164.243C966.433 169.647 960.99 177.222 957.274 186.968C953.645 196.714 951.831 208.187 951.831 221.388Z" fill="white"/>
<path d="M1125.62 323.452V119.324H1172.22V153.345H1174.34C1178.06 141.562 1184.43 132.481 1193.45 126.102C1202.57 119.634 1212.97 116.4 1224.65 116.4C1227.3 116.4 1230.27 116.533 1233.54 116.799C1236.91 116.976 1239.69 117.286 1241.91 117.729V161.984C1239.87 161.275 1236.64 160.655 1232.22 160.123C1227.88 159.503 1223.68 159.193 1219.6 159.193C1210.84 159.193 1202.97 161.098 1195.98 164.907C1189.07 168.628 1183.63 173.811 1179.65 180.456C1175.67 187.101 1173.68 194.764 1173.68 203.447V323.452H1125.62Z" fill="white"/>
<path d="M1341.66 327.439C1321.75 327.439 1304.49 323.053 1289.89 314.282C1275.29 305.511 1263.96 293.24 1255.91 277.47C1247.95 261.699 1243.96 243.271 1243.96 222.185C1243.96 201.099 1247.95 182.627 1255.91 166.768C1263.96 150.909 1275.29 138.594 1289.89 129.823C1304.49 121.052 1321.75 116.666 1341.66 116.666C1361.57 116.666 1378.83 121.052 1393.43 129.823C1408.03 138.594 1419.32 150.909 1427.28 166.768C1435.33 182.627 1439.36 201.099 1439.36 222.185C1439.36 243.271 1435.33 261.699 1427.28 277.47C1419.32 293.24 1408.03 305.511 1393.43 314.282C1378.83 323.053 1361.57 327.439 1341.66 327.439ZM1341.93 288.899C1352.72 288.899 1361.75 285.931 1369.01 279.995C1376.26 273.97 1381.66 265.908 1385.2 255.808C1388.83 245.708 1390.64 234.456 1390.64 222.052C1390.64 209.56 1388.83 198.264 1385.2 188.164C1381.66 177.975 1376.26 169.869 1369.01 163.844C1361.75 157.819 1352.72 154.807 1341.93 154.807C1330.87 154.807 1321.66 157.819 1314.32 163.844C1307.06 169.869 1301.62 177.975 1297.99 188.164C1294.45 198.264 1292.68 209.56 1292.68 222.052C1292.68 234.456 1294.45 245.708 1297.99 255.808C1301.62 265.908 1307.06 273.97 1314.32 279.995C1321.66 285.931 1330.87 288.899 1341.93 288.899Z" fill="white"/>
<path fill-rule="evenodd" clip-rule="evenodd" d="M184.615 0C286.667 0 369.231 82.5641 369.231 184.615C369.231 286.667 286.667 369.231 184.615 369.231C82.5641 369.231 0 286.667 0 184.615C0 160.823 4.45959 137.96 12.7461 117.133C14.0807 113.779 18.9999 114.359 20.0792 117.804C20.7806 120.044 21.5998 122.238 22.5641 124.359C26.6667 134.103 32.3077 142.564 39.7436 150C46.9231 157.179 55.641 163.077 65.3846 167.18C74.6154 171.026 84.8718 173.077 95.3846 173.077H111.282C113.548 173.077 115.385 171.24 115.385 168.974V137.949C115.385 135.683 113.548 133.846 111.282 133.846H95.3846C90 133.846 84.8718 132.821 80.5128 130.769C75.641 128.718 71.2821 125.897 67.6923 122.308C64.1026 118.718 61.0256 114.359 58.9744 109.487C57.1795 104.872 55.8974 100 55.8974 94.8718V94.359C55.8974 89.2308 56.9231 84.1026 58.9744 79.7436C61.0256 74.8718 63.8462 70.5128 67.4359 66.9231C71.0256 63.3333 75.3846 60.2564 80.2564 58.4615C84.8718 56.6667 90 55.3846 95.1282 55.3846C100.513 55.3846 105.385 56.4103 110 58.4615C114.872 60.5128 119.231 63.3333 122.821 66.9231C126.41 70.5128 129.487 74.8718 131.282 79.7436C133.077 84.359 134.359 89.4872 134.359 94.6154V212.564C134.359 223.077 136.41 233.333 140.256 242.564C144.359 252.308 150 260.769 157.436 268.205C164.615 275.385 173.333 281.282 183.077 285.385C192.308 289.231 202.564 291.282 213.077 291.282C223.59 291.282 233.846 289.231 243.077 285.385C252.564 281.282 261.282 275.641 268.718 268.205C275.897 261.026 281.795 252.308 285.897 242.564C289.231 234.615 291.282 225.897 291.795 216.667H292.051V210C291.795 200.256 289.744 191.282 286.154 182.564C282.051 173.077 276.41 164.359 268.974 156.923C261.795 149.744 253.077 143.846 243.333 139.744C234.103 135.897 223.846 133.846 213.333 133.846H197.436C195.17 133.846 193.333 135.683 193.333 137.949V168.974C193.333 171.24 195.17 173.077 197.436 173.077H213.333C218.718 173.077 223.846 174.103 228.205 176.154C233.077 178.205 237.436 181.026 241.026 184.872C244.615 188.462 247.692 192.821 249.744 197.692C251.538 202.308 252.821 207.18 252.821 212.308V212.821C252.821 217.949 251.795 223.077 249.744 227.436C247.692 232.308 244.872 236.667 241.282 240.256C237.692 243.846 233.333 246.923 228.462 248.718C223.846 250.513 218.718 251.795 213.59 251.795C208.462 251.795 203.333 250.769 198.718 248.718C193.846 246.667 189.487 243.846 185.897 240.256C182.308 236.667 179.231 232.308 177.436 227.436C175.641 222.821 174.359 217.692 174.359 212.564V94.6154C174.359 84.1026 172.308 73.8462 168.462 64.6154C164.359 54.8718 158.718 46.4103 151.282 38.9744C144.103 31.7949 135.385 25.8974 125.641 21.7949C123.695 20.961 121.683 20.2276 119.627 19.5825C116.202 18.5076 115.638 13.6257 118.971 12.2951C139.114 4.25553 161.31 0 184.615 0Z" fill="#4250E4"/>
</svg>
